{"title":"JazzDuck S01E00 Pilot 1080p AMZN WEBRip HEVC DD5.1 x26","uid":15610985,"size":212436251,"categoryP":"video","categoryS":"hd___tv_shows","magnet":"?xt=urn:btih:8c69f60634b4adc020844df0557c2cd611cb57fa&amp;dn=JazzDuck+S01E00+Pilot+1080p+AMZN+WEBRip+HEVC+DD5.1+x26&amp;tr=udp%3A%2F%2Ftracker.leechers-paradise.org%3A6969&amp;tr=udp%3A%2F%2Fzer0day.ch%3A1337&amp;tr=udp%3A%2F%2Fopen.demonii.com%3A1337&amp;tr=udp%3A%2F%2Ftracker.coppersurfer.tk%3A6969&amp;tr=udp%3A%2F%2Fexodus.desync.com%3A6969","seeders":0,"leechers":1,"uploader":"nayhtut","files":1,"time":1471782543,"description":"[Screenshots]\r\n \nhttps://s14.postimg.org/rvikjbfpt/Jazz_Duck_S01_E00_Amazon_Pilot_1080p_AMZN_WEBRip_H.jpg \nhttps://s14.postimg.org/gx7b14r4h/Jazz_Duck_S01_E00_Amazon_Pilot_1080p_AMZN_WEBRip_H.jpg\r\n\r\n\r\nSource:  JazzDuck S01E00 Amazon Pilot 1080p AMZN WEBRip DD5.1 x264-CasStudio (394 MB)\r\n\r\n\r\n__--__--__--__--__--__--__--__--__--__--__--__--__--\r\n\r\n\r\nComplete name                            : JazzDuck.S01E00.Amazon.Pilot.1080p.AMZN.WEBRip.HEVC.DD5.1.x265.mkv\r\nFormat                                   : Matroska\r\nFormat version                           : Version 4 / Version 2\r\nFile size                                : 203 MiB\r\nDuration                                 : 11mn 59s\r\nOverall bit rate                         : 2 361 Kbps\r\nWriting application                      : Lavf57.25.100\r\nWriting library                          : Lavf57.25.100\r\n\r\nVideo\r\n\r\nID                                       : 1\r\nFormat                                   : V_MPEGH/ISO/HEVC\r\nCodec ID                                 : V_MPEGH/ISO/HEVC\r\nDuration                                 : 11mn 59s\r\nBit rate                                 : 1 930 Kbps\r\nWidth                                    : 1 920 pixels\r\nHeight                                   : 1 080 pixels\r\nDisplay aspect ratio                     : 16:9\r\nFrame rate                               : 25.000 fps\r\nBits/(Pixel*Frame)                       : 0.037\r\nStream size                              : 166 MiB (82%)\r\nWriting library                          : Lavc57.48.101 libx265\r\nLanguage                                 : English\r\nDefault                                  : Yes\r\nForced                                   : No\r\nDURATION                                 : 00:11:59.851000000\r\nNUMBER_OF_FRAMES                         : 17258\r\nNUMBER_OF_BYTES                          : 355121355\r\n_STATISTICS_WRITING_APP                  : mkvmerge v9.3.1 ('Mask Machine') 64bit\r\n_STATISTICS_WRITING_DATE_UTC             : 2016-08-20 20:22:10\r\n_STATISTICS_TAGS                         : BPS DURATION NUMBER_OF_FRAMES NUMBER_OF_BYTES\r\n\r\nAudio\r\n\r\nID                                       : 2\r\nFormat                                   : AC-3\r\nFormat/Info                              : Audio Coding 3\r\nMode extension                           : CM (complete main)\r\nFormat settings, Endianness              : Big\r\nCodec ID                                 : A_AC3\r\nDuration                                 : 11mn 59s\r\nBit rate mode                            : Constant\r\nBit rate                                 : 384 Kbps\r\nChannel(s)                               : 6 channels\r\nChannel positions                        : Front: L C R, Side: L R, LFE\r\nSampling rate                            : 48.0 KHz\r\nBit depth                                : 16 bits\r\nCompression mode                         : Lossy\r\nStream size                              : 33.0 MiB (16%)\r\nWriting library                          : Lavc57.24.102 ac3\r\nLanguage                                 : English\r\nDefault                                  : Yes\r\nForced                                   : No\r\nDURATION                                 : 00:11:59.871000000\r\nNUMBER_OF_FRAMES                         : 22493\r\nNUMBER_OF_BYTES                          : 57582080\r\n_STATISTICS_WRITING_APP                  : mkvmerge v9.3.1 ('Mask Machine') 64bit\r\n_STATISTICS_WRITING_DATE_UTC             : 2016-08-20 20:22:10\r\n_STATISTICS_TAGS                         : BPS DURATION NUMBER_OF_FRAMES NUMBER_OF_BYTES\r\n\r\nText\r\n\r\nID                                       : 3\r\nFormat                                   : ASS\r\nCodec ID                                 : S_TEXT/ASS\r\nCodec ID/Info                            : Advanced Sub Station Alpha\r\nCompression mode                         : Lossless\r\nWriting library                          : Lavc57.48.101 ssa\r\nLanguage                                 : English\r\nDefault                                  : No\r\nForced                                   : No\r\nDURATION                                 : 00:11:31.075000000\r\nNUMBER_OF_FRAMES                         : 289\r\nNUMBER_OF_BYTES                          : 6827\r\n_STATISTICS_WRITING_APP                  : mkvmerge v9.3.1 ('Mask Machine') 64bit\r\n_STATISTICS_WRITING_DATE_UTC             : 2016-08-20 20:22:10\r\n_STATISTICS_TAGS                         : BPS DURATION NUMBER_OF_FRAMES NUMBER_OF_BYTES\r\n\r\nMenu\r\n\r\n00:00:00.000                             : :Amazon Studio\r\n00:00:05.000                             : :Opening Credits\r\n00:00:24.000                             : :JazzDuck looks for Ball\r\n00:02:20.000                             : :JazzDuck looks for Ball\r\n00:04:24.000                             : :JazzDuck searches the city for Ball\r\n00:07:20.000                             : :JazzDuck and his friends do the Big Buddy Bounce\r\n00:11:05.000                             : :End Credits\r\n\r\n__--__--__--__--__--__--__--__--__--__--__--__--__--\r\n\r\n\r\nIMDb: http://www.imdb.com/title/tt5562036\r\n\r\n__--__--__--__--__--__--__--__--__--__--__--__--__--\r\n\r\n\r\n\r\nAfter adding torrent with maget link,\r\n\r\nplease add this  following trackers list to the torrent for better seeds.\r\n\r\n\r\nudp://tracker.coppersurfer.tk:6969/announce\r\n\r\nudp://tracker.opentrackr.org:1337/announce\r\n \nhttp://tracker.baravik.org:6970/announce\r\n \nhttp://tracker2.wasabii.com.tw:6969/announce\r\n\r\nudp://9.rarbg.me:2710/announce\r\n\r\n__--__--__--__--__--__--__--__--__--__--__--__--__--\r\n\r\n\r\n\r\nEnjoy!","torrent":{"xt":"urn:btih:8c69f60634b4adc020844df0557c2cd611cb57fa","amp;dn":"JazzDuck+S01E00+Pilot+1080p+AMZN+WEBRip+HEVC+DD5.1+x26","amp;tr":["udp%3A%2F%2Ftracker.leechers-paradise.org%3A6969","udp%3A%2F%2Fzer0day.ch%3A1337","udp%3A%2F%2Fopen.demonii.com%3A1337","udp%3A%2F%2Ftracker.coppersurfer.tk%3A6969","udp%3A%2F%2Fexodus.desync.com%3A6969"],"infoHash":"8c69f60634b4adc020844df0557c2cd611cb57fa","infoHashBuffer":{"type":"Buffer","data":[140,105,246,6,52,180,173,192,32,132,77,240,85,124,44,214,17,203,87,250]},"announce":[],"urlList":[]}}